<svg xmlns="http://www.w3.org/2000/svg" viewBox="0 0 16 16"><path d="M1.586,8.324V1.28L.937.652V8.324a5.606,5.606,0,0,0,1.111,3.189,12.011,12.011,0,0,0,2.38,2.469A20.4,20.4,0,0,0,7.493,16v-.742C5.838,14.326,1.586,11.613,1.586,8.324ZM14.414,1.28V8.324c0,3.289-4.252,6-5.907,6.934V16a20.4,20.4,0,0,0,3.065-2.018,12.038,12.038,0,0,0,2.38-2.469,5.606,5.606,0,0,0,1.111-3.189V.652Z" fill="#0091da"/><polygon points="13.609 0.649 14.279 0 1.721 0 2.391 0.649 13.609 0.649" fill="#7f35b2"/><path d="M2.8,1.865V8.324c0,1.251.973,2.73,2.742,4.163A18.035,18.035,0,0,0,7.493,13.85c.123.075.238.143.344.205L8,14.149l.163-.094c.105-.062.221-.13.344-.205a18.154,18.154,0,0,0,1.9-1.322c1.8-1.447,2.793-2.94,2.793-4.2V1.865Zm9.746,6.459c0,1.063-.906,2.377-2.551,3.7a16.985,16.985,0,0,1-1.491,1.063c-.182.116-.353.221-.507.313-.154-.092-.325-.2-.507-.312a17.213,17.213,0,0,1-1.54-1.1A8.588,8.588,0,0,1,3.875,9.7L7.493,7.613l.388-.224.01,0,.53-.306.01-.006.076-.044L12.549,4.7Zm0-4.379-2.2,1.271L8.507,6.279l-.188.108-.826.477-.077.045-.01,0L3.6,9.112a2.357,2.357,0,0,1-.149-.788V2.514h9.1V3.945Z" fill="#1d428a"/></svg>