<?xml version="1.0" encoding="utf-8"?>
<!-- Generator: Adobe Illustrator 24.3.0, SVG Export Plug-In . SVG Version: 6.00 Build 0)  -->
<svg version="1.1" id="Layer_1" xmlns="http://www.w3.org/2000/svg" xmlns:xlink="http://www.w3.org/1999/xlink" x="0px" y="0px"
	 viewBox="0 0 432 300.5" style="enable-background:new 0 0 432 300.5;" xml:space="preserve">
<style type="text/css">
	.st0{fill:#717074;}
	.st1{fill:#0091DA;}
	.st2{fill:#7F35B2;}
	.st3{fill:#1D428A;}
</style>
<path class="st0" d="M145.7,167.7L132,199l-13.8-31.3h-4.5l16.1,36.4h4.5l16.1-36.4H145.7z M160.1,176.6l13.5,25.4l13.5-25.4v27.5
	h4.1v-36.4h-4.1L173.6,193l-13.5-25.4H156v36.4h4.1V176.6z M226,198.8l-7.5-22.1H215l-7.5,22.1l-6.8-22.1h-4.2l9.2,27.4h3.8
	l7.4-21.9l7.3,21.9h3.8l9.2-27.4h-4.2L226,198.8z M254,203.4c1.8-0.9,3.2-2.1,4.1-3.6v4.3h4v-16.7c0-3.4-0.9-6.2-2.8-8.2
	c-1.9-2.1-4.7-3.1-8.3-3.1c-3,0-6.3,0.9-9.9,2.6l1.6,3.2c1.5-0.8,2.9-1.4,4.2-1.8c1.3-0.4,2.6-0.7,3.8-0.7c2.7,0,4.6,0.8,5.7,2.3
	s1.7,3.4,1.7,5.6v1c-3.2-1-6.1-1.5-8.9-1.5c-1.9,0-3.7,0.4-5.4,1.1c-1.6,0.8-3,1.8-3.9,3.2c-1,1.4-1.5,3-1.5,4.7
	c0,2.6,0.9,4.8,2.8,6.4s4.3,2.4,7.2,2.4C250.4,204.7,252.2,204.3,254,203.4z M242.3,195.8c0-1.6,0.7-3,2.2-4
	c1.5-1.1,3.2-1.6,5.3-1.6c2.8,0,5.6,0.4,8.3,1.1v4.2c-0.5,1.8-1.6,3.2-3.4,4.2c-1.7,1-3.6,1.5-5.6,1.5c-2,0-3.6-0.5-4.9-1.5
	C242.9,198.8,242.3,197.5,242.3,195.8z M284.1,176c-2.5,0-4.7,0.5-6.6,1.6c-1.9,1.1-3.2,2.5-4,4.4v-5.4h-4v27.4h4v-15.3
	c0-1.8,0.5-3.3,1.4-4.7s2.2-2.5,3.8-3.3c1.6-0.8,3.4-1.2,5.5-1.2L284.1,176L284.1,176z M299.5,204.7c2,0,4-0.4,6.1-1.2
	c2.1-0.8,3.7-1.8,4.9-3.1l-2.4-2.6c-0.8,0.9-2.1,1.7-3.7,2.3s-3.3,1-4.9,1c-2.6,0-4.9-0.9-6.7-2.6s-2.8-4-3.1-6.7h22.4
	c0-4.8-1.1-8.7-3.4-11.6c-2.3-2.9-5.5-4.3-9.6-4.3c-2.4,0-4.7,0.6-6.8,1.9c-2.1,1.2-3.7,2.9-4.9,5.1c-1.2,2.2-1.8,4.6-1.8,7.3
	c0,2.7,0.6,5.2,1.9,7.4c1.3,2.2,3,3.9,5.1,5.2C294.8,204.1,297.1,204.7,299.5,204.7z M293,182c1.8-1.6,3.9-2.4,6.4-2.4
	c2.6,0,4.7,0.8,6.2,2.4c1.5,1.6,2.4,3.7,2.7,6.3h-18.4C290.1,185.7,291.2,183.6,293,182z M61.1,232.9c2.2-1.4,4.6-2,7.2-2
	c1.9,0,3.8,0.4,5.6,1.2c1.8,0.8,3.3,1.9,4.7,3.4l2.8-2.9c-1.7-1.8-3.7-3.1-6-4.1c-2.3-1-4.6-1.5-7.1-1.5c-3.3,0-6.4,0.9-9.2,2.6
	c-2.9,1.7-5.2,4-6.9,6.9c-1.7,2.9-2.5,6-2.5,9.4c0,3.4,0.8,6.5,2.5,9.4c1.7,2.9,4,5.2,6.9,6.9c2.9,1.7,6,2.6,9.2,2.6
	c2.5,0,4.8-0.5,7.1-1.5c2.3-1,4.3-2.4,6-4.1l-2.8-2.9c-1.3,1.4-2.9,2.6-4.7,3.4c-1.8,0.8-3.6,1.2-5.6,1.2c-2.6,0-5-0.7-7.2-2.1
	s-4-3.2-5.3-5.5c-1.3-2.3-2-4.8-2-7.5c0-2.6,0.7-5.1,2-7.4C57.1,236.1,58.9,234.2,61.1,232.9z M97.6,236c-3,0-6.3,0.9-9.9,2.6
	l1.6,3.2c1.5-0.8,2.9-1.4,4.2-1.8c1.3-0.4,2.6-0.7,3.8-0.7c2.7,0,4.6,0.8,5.7,2.3c1.1,1.5,1.7,3.4,1.7,5.6v1c-3.2-1-6.1-1.5-8.9-1.5
	c-1.9,0-3.7,0.4-5.4,1.1c-1.6,0.8-3,1.8-3.9,3.2c-1,1.4-1.5,3-1.5,4.7c0,2.6,0.9,4.8,2.8,6.4c1.9,1.6,4.3,2.4,7.2,2.4
	c1.9,0,3.8-0.4,5.5-1.3c1.8-0.9,3.2-2.1,4.1-3.6v4.3h4v-16.7c0-3.4-0.9-6.2-2.8-8.2C104,237.1,101.2,236,97.6,236z M104.8,255.5
	c-0.5,1.8-1.6,3.2-3.4,4.2c-1.7,1-3.6,1.5-5.6,1.5s-3.6-0.5-4.9-1.5c-1.3-1-1.9-2.3-1.9-3.9c0-1.6,0.7-3,2.2-4
	c1.5-1.1,3.2-1.6,5.3-1.6c2.8,0,5.6,0.4,8.3,1.1L104.8,255.5L104.8,255.5z M120.1,242v-5.4h-4v27.4h4v-15.3c0-1.8,0.5-3.3,1.4-4.7
	s2.2-2.5,3.8-3.3c1.6-0.8,3.4-1.2,5.5-1.2V236c-2.5,0-4.7,0.5-6.6,1.6C122.3,238.7,120.9,240.2,120.1,242z M155.8,237.9
	c-1.9-1.2-4.1-1.8-6.4-1.8c-2.2,0-4.1,0.5-5.8,1.5c-1.7,1-3.1,2.4-4.2,4.3V227h-4v37h4v-5.1c1.1,1.8,2.4,3.3,4.2,4.3
	c1.7,1,3.6,1.5,5.8,1.5c2.4,0,4.5-0.6,6.4-1.8s3.4-2.9,4.5-5.1c1.1-2.2,1.6-4.7,1.6-7.4c0-2.8-0.5-5.2-1.6-7.4
	C159.2,240.8,157.7,239.1,155.8,237.9z M156.6,255.9c-0.8,1.6-1.9,2.9-3.3,3.8c-1.4,0.9-3,1.4-4.7,1.4c-1.8,0-3.4-0.5-4.8-1.4
	c-1.4-0.9-2.5-2.2-3.3-3.8c-0.8-1.6-1.2-3.5-1.2-5.6s0.4-3.9,1.2-5.6c0.8-1.6,1.9-2.9,3.3-3.8c1.4-0.9,3-1.4,4.8-1.4
	c1.8,0,3.3,0.5,4.7,1.4c1.4,0.9,2.5,2.2,3.3,3.8c0.8,1.6,1.2,3.5,1.2,5.6S157.4,254.3,156.6,255.9z M187.2,238
	c-2.2-1.3-4.5-1.9-7-1.9s-4.9,0.6-7.1,1.9c-2.2,1.3-3.9,3-5.2,5.2c-1.3,2.2-1.9,4.6-1.9,7.2s0.6,5,1.9,7.2c1.3,2.2,3,4,5.2,5.2
	c2.2,1.3,4.5,1.9,7.1,1.9s4.9-0.6,7-1.9c2.2-1.3,3.9-3,5.1-5.2c1.3-2.2,1.9-4.6,1.9-7.2s-0.6-5-1.9-7.2S189.3,239.3,187.2,238z
	 M188.7,255.7c-0.9,1.7-2.1,3-3.6,3.9c-1.5,1-3.2,1.5-5,1.5s-3.5-0.5-5-1.5c-1.5-1-2.8-2.3-3.7-3.9c-0.9-1.7-1.4-3.5-1.4-5.4
	s0.5-3.7,1.4-5.4s2.1-2.9,3.7-3.9s3.2-1.5,5-1.5c1.8,0,3.5,0.5,5,1.5c1.5,1,2.7,2.3,3.6,3.9c0.9,1.6,1.4,3.4,1.4,5.4
	S189.6,254.1,188.7,255.7z M218.3,237.4c-1.6-0.9-3.3-1.3-5.4-1.3c-1.9,0-3.7,0.5-5.4,1.4c-1.6,0.9-2.8,2.1-3.7,3.6v-4.3h-4v27.4h4
	v-17.4c0-1.3,0.4-2.4,1.1-3.5c0.8-1.1,1.8-1.9,3.1-2.6c1.3-0.6,2.7-1,4.2-1c2,0,3.7,0.7,4.9,2.1s1.9,3.2,1.9,5.5v16.9h4v-17.4
	c0-2.1-0.4-3.9-1.3-5.5C221.1,239.5,219.9,238.2,218.3,237.4z M269.1,244.7c1.7-1,3-2.2,3.9-3.4c0.9-1.2,1.3-2.8,1.3-4.6
	c0-1.7-0.4-3.3-1.3-4.7s-2-2.5-3.6-3.2c-1.5-0.8-3.3-1.2-5.2-1.2h-16.7v36.4h17.3c2.1,0,3.9-0.4,5.6-1.3s2.9-2,3.8-3.6
	c0.9-1.5,1.4-3.2,1.4-5.1c0-2-0.6-3.8-1.7-5.4C272.8,247.1,271.2,245.8,269.1,244.7z M251.7,231.4h11.5c2,0,3.7,0.5,5,1.6
	c1.3,1.1,1.9,2.5,1.9,4.2s-0.6,3.1-1.9,4.2c-1.3,1.1-2.9,1.6-5,1.6h-11.5L251.7,231.4L251.7,231.4z M269.4,258.4
	c-1.4,1.3-3.3,1.9-5.5,1.9h-12.1v-13.5h12.1c2.3,0,4.1,0.6,5.5,1.9c1.4,1.3,2.1,2.9,2.1,4.9C271.5,255.6,270.8,257.2,269.4,258.4z
	 M282.9,264.1h4v-37h-4V264.1z M304.8,236c-3,0-6.3,0.9-9.9,2.6l1.6,3.2c1.5-0.8,2.9-1.4,4.2-1.8c1.3-0.4,2.6-0.7,3.8-0.7
	c2.7,0,4.6,0.8,5.7,2.3s1.7,3.4,1.7,5.6v1c-3.2-1-6.1-1.5-8.9-1.5c-1.9,0-3.7,0.4-5.4,1.1c-1.6,0.8-3,1.8-3.9,3.2
	c-1,1.4-1.5,3-1.5,4.7c0,2.6,0.9,4.8,2.8,6.4s4.3,2.4,7.2,2.4c1.9,0,3.8-0.4,5.5-1.3c1.8-0.9,3.2-2.1,4.1-3.6v4.3h4v-16.7
	c0-3.4-0.9-6.2-2.8-8.2C311.2,237.1,308.5,236,304.8,236z M312,255.5c-0.5,1.8-1.6,3.2-3.4,4.2c-1.7,1-3.6,1.5-5.6,1.5
	s-3.6-0.5-4.9-1.5c-1.3-1-1.9-2.3-1.9-3.9c0-1.6,0.7-3,2.2-4c1.5-1.1,3.2-1.6,5.3-1.6c2.8,0,5.6,0.4,8.3,1.1V255.5z M339.3,260.3
	c-1.2,0.6-2.5,0.9-3.9,0.9c-1.8,0-3.5-0.5-5-1.5c-1.5-1-2.8-2.3-3.7-3.9c-0.9-1.6-1.4-3.4-1.4-5.4c0-1.9,0.5-3.7,1.4-5.4
	c0.9-1.7,2.1-3,3.7-3.9c1.5-1,3.2-1.5,5-1.5c1.3,0,2.6,0.3,3.8,0.8c1.2,0.6,2.3,1.3,3.2,2.3l2.8-2.7c-1.3-1.3-2.8-2.3-4.5-3
	c-1.7-0.7-3.4-1.1-5.3-1.1c-2.5,0-4.9,0.7-7,2c-2.2,1.3-3.9,3.1-5.2,5.2c-1.3,2.2-1.9,4.6-1.9,7.1c0,2.5,0.6,4.9,1.9,7.1
	c1.3,2.2,3,4,5.2,5.3c2.2,1.3,4.5,2,7,2c1.9,0,3.7-0.4,5.4-1.1c1.7-0.7,3.2-1.8,4.5-3.1l-2.8-2.7
	C341.7,258.9,340.6,259.7,339.3,260.3z M368.9,236.7l-15,15.2V227h-4v37h4v-7.3l4.9-4.9l9.5,12.1h5l-11.7-14.8l12.3-12.6
	L368.9,236.7L368.9,236.7z M388.6,227.9l-2.5,4.2l-2.5-4.2h-2.2v8.4h2.2v-4.7l2.5,4.2l2.5-4.2v4.7h2.2v-8.4H388.6z M373.5,230h2.2
	v6.3h2.2V230h2.2v-2.1h-6.6L373.5,230L373.5,230z"/>
<g id="horiz">
	<path class="st1" d="M177.5,93.8V46.9l-4.3-4.2v51.1c0,7,2.5,14.2,7.4,21.2c4.5,6.2,9.8,11.7,15.8,16.4c6.4,5.1,13.2,9.6,20.4,13.4
		V140C205.8,133.8,177.5,115.7,177.5,93.8z M262.9,46.9v46.9c0,21.9-28.3,40-39.3,46.2v4.9c7.2-3.9,14-8.4,20.4-13.4
		c6-4.7,11.4-10.2,15.8-16.4c4.9-7.1,7.4-14.2,7.4-21.2V42.7L262.9,46.9z"/>
	<polygon class="st2" points="257.5,42.7 262,38.4 178.4,38.4 182.9,42.7 	"/>
	<path class="st3" d="M185.6,50.8v43c0,8.3,6.5,18.2,18.3,27.7c4.1,3.3,8.5,6.3,13,9.1c0.8,0.5,1.6,1,2.3,1.4l1.1,0.6l1.1-0.6
		c0.7-0.4,1.5-0.9,2.3-1.4c4.4-2.7,8.6-5.6,12.6-8.8c12-9.6,18.6-19.6,18.6-28v-43L185.6,50.8z M250.5,93.8c0,7.1-6,15.8-17,24.6
		c-3.2,2.5-6.5,4.9-9.9,7.1c-1.2,0.8-2.4,1.5-3.4,2.1c-1-0.6-2.2-1.3-3.4-2.1c-3.6-2.3-7-4.7-10.3-7.3c-6.4-5.2-11.1-10.4-13.8-15.2
		l24.1-13.9l2.6-1.5l0.1,0l3.5-2l0.1,0l0.5-0.3l26.9-15.5L250.5,93.8z M250.5,64.7l-14.6,8.5l-12.3,7.1l-1.2,0.7l-5.5,3.2l-0.5,0.3
		l-0.1,0l-25.3,14.6c-0.6-1.7-1-3.5-1-5.2V55.1h60.6L250.5,64.7L250.5,64.7z"/>
</g>
</svg>
